PathFileType	4	(X/Y/Z)	TVC_9_BWA3_walk_RCNL2025.trc
DataRate	CameraRate	NumFrames	NumMarkers	Units	OrigDataRate	OrigDataStartFrame	OrigNumFrames
100	100	5	27	mm	100	274	438
Frame#	Time	R_Shoulder			L_Shoulder			C7			J_Notch			R_Elbow			L_Elbow			R_Wrist			L_Wrist			R_Asis			L_Asis			R_Psis			L_Psis			Sacral			Thoracic			Sternum			R_Thigh_Lateral			R_Knee_Lateral			R_Shank_Lateral			R_Ankle_Lateral			R_Heel			R_Toe			L_Thigh_Lateral			L_Knee_Lateral			L_Shank_Lateral			L_Ankle_Lateral			L_Heel			L_Toe		
		X1	Y1	Z1	X2	Y2	Z2	X3	Y3	Z3	X4	Y4	Z4	X5	Y5	Z5	X6	Y6	Z6	X7	Y7	Z7	X8	Y8	Z8	X9	Y9	Z9	X10	Y10	Z10	X11	Y11	Z11	X12	Y12	Z12	X13	Y13	Z13	X14	Y14	Z14	X15	Y15	Z15	X16	Y16	Z16	X17	Y17	Z17	X18	Y18	Z18	X19	Y19	Z19	X20	Y20	Z20	X21	Y21	Z21	X22	Y22	Z22	X23	Y23	Z23	X24	Y24	Z24	X25	Y25	Z25	X26	Y26	Z26	X27	Y27	Z27
274	2.73000000	688.576843	1366.595337	21.838326	659.155334	1381.913696	-367.523987	624.722046	1439.448242	-178.081909	778.928406	1341.763306	-171.456863	619.631836	1041.150269	112.260017	649.841309	1067.571045	-501.768250	704.289032	806.003845	100.658382	793.009155	868.708344	-518.723587	730.369934	926.704468	-27.779955	706.137939	938.160400	-328.291595	530.449829	954.083191	-109.451393	521.457092	950.714294	-208.045166	525.953461	952.398743	-158.748280	532.229248	1162.572021	-167.758621	838.685669	1151.843018	-176.810471	739.528259	525.101685	23.785770	742.595154	446.810730	-49.859882	743.152893	286.479309	-16.867304	709.617798	68.006996	-100.788925	655.452820	58.045357	-164.659454	838.029114	45.997128	-135.972397	773.194580	577.783752	-381.924561	750.522156	450.905579	-329.719360	653.556885	352.182159	-376.319458	478.231537	213.746246	-299.628174	428.293091	235.000809	-241.065460	547.165161	84.606880	-271.367950
275	2.74000000	698.015564	1367.400513	21.622051	667.476807	1382.537720	-367.541351	633.738892	1440.318604	-178.049866	787.790283	1342.471924	-171.622894	634.141052	1041.866577	114.588432	652.148499	1066.645142	-498.202606	728.381409	810.460815	102.981236	791.126099	864.842560	-514.875305	738.476196	927.435791	-26.820601	715.028687	938.807312	-327.803467	538.818298	955.210754	-109.222656	530.115112	951.598938	-207.759827	534.466705	953.404846	-158.491241	541.058289	1163.499023	-167.376343	847.273315	1152.298462	-177.103516	742.797852	525.254639	24.405777	744.785034	446.674866	-49.479233	744.269836	286.300018	-16.455460	709.683777	68.015167	-100.786774	655.521240	58.145233	-164.628815	838.007568	45.873989	-135.790985	789.929016	581.389954	-381.945496	770.733887	454.494232	-330.004150	675.894653	353.961273	-377.423706	503.544708	211.297455	-301.812103	452.255890	229.800705	-242.992432	577.768372	85.195221	-275.286682
276	2.75000000	707.365540	1368.190552	21.325212	675.728333	1383.033569	-367.646118	642.686096	1441.100342	-178.134064	796.579712	1343.092285	-171.870850	648.507507	1042.770020	116.967781	654.458862	1065.699585	-494.539764	752.290710	815.556335	105.226517	789.071686	860.979340	-510.888351	746.498230	928.112732	-25.842579	723.898193	939.331360	-327.333435	547.123169	956.243591	-109.075073	538.739563	952.410400	-207.658432	542.931366	954.326996	-158.366753	549.816589	1164.340698	-167.059067	855.802002	1152.692139	-177.402527	745.423706	525.304810	24.905678	746.868164	446.573822	-49.146263	745.317322	286.128967	-16.115255	709.719360	68.026855	-100.785950	655.562073	58.239143	-164.612488	837.948547	45.775578	-135.619080	806.423706	584.926025	-381.810516	790.433167	458.101166	-330.189209	698.282227	355.246979	-378.406860	529.611328	207.623856	-303.851776	476.948608	223.195068	-244.875137	609.389893	85.049171	-278.696655
277	2.76000000	716.620483	1368.957153	20.957876	683.918030	1383.401001	-367.829193	651.561218	1441.784058	-178.325104	805.298889	1343.621704	-172.191727	662.727905	1043.850708	119.398720	656.791687	1064.744873	-490.797943	775.948059	821.269073	107.383167	786.877350	857.143036	-506.769638	754.460571	928.731140	-24.858082	732.756042	939.729431	-326.879974	555.382690	957.169739	-109.005928	547.346008	953.130615	-207.725571	551.364349	955.150177	-158.365749	558.509521	1165.084595	-166.810272	864.283936	1153.027954	-177.690094	747.677063	525.289368	25.306778	748.888916	446.508698	-48.869537	746.339783	285.966370	-15.865589	709.736145	68.043945	-100.790154	655.584717	58.328144	-164.615784	837.859436	45.703968	-135.462448	822.560303	588.352722	-381.538391	809.560547	461.644287	-330.296753	720.676025	356.037476	-379.264343	556.402771	202.842575	-305.709106	502.405853	215.351181	-246.674164	641.860901	84.288315	-281.536285
278	2.77000000	725.774475	1369.692261	20.529488	692.054077	1383.640991	-368.082123	660.362488	1442.361328	-178.613449	813.950317	1344.058105	-172.576660	676.801331	1045.097900	121.881691	659.165466	1063.789673	-486.997803	799.289154	827.567780	109.441994	784.576965	853.357025	-502.527786	762.387146	929.285278	-23.881298	741.609802	939.999573	-326.443085	563.613953	957.978516	-109.010254	555.948242	953.745850	-207.935257	559.781097	955.862183	-158.472755	567.142761	1165.719360	-166.632919	872.730530	1153.308105	-177.952469	749.863220	525.255615	25.632586	750.887573	446.478760	-48.654301	747.374939	285.814087	-15.714570	709.744934	68.067795	-100.802170	655.598694	58.414955	-164.642029	837.749146	45.656902	-135.325211	838.207397	591.635254	-381.156982	828.053650	465.047577	-330.348145	743.007568	356.355743	-379.993683	583.887756	197.094604	-307.343872	528.661255	206.443741	-248.328873	675.041077	83.054405	-283.799377
